<?xml version="1.0" standalone="no"?>
<!DOCTYPE svg PUBLIC "-//W3C//DTD SVG 20010904//EN"
 "http://www.w3.org/TR/2001/REC-SVG-20010904/DTD/svg10.dtd">
<svg version="1.0" xmlns="http://www.w3.org/2000/svg"
 width="365.000000pt" height="365.000000pt" viewBox="0 0 365.000000 365.000000"
 preserveAspectRatio="xMidYMid meet">
<metadata>
Created by potrace 1.14, written by Peter Selinger 2001-2017
</metadata>
<g transform="translate(0.000000,365.000000) scale(0.100000,-0.100000)"
fill="#000000" stroke="none">
<path d="M0 3528 c0 -102 3 -129 21 -167 44 -97 64 -146 80 -196 7 -22 16 -45
20 -50 4 -6 15 -53 24 -105 9 -52 21 -100 27 -107 5 -7 7 -17 3 -22 -3 -6 1
-34 8 -63 19 -68 34 -164 42 -253 4 -38 10 -86 15 -105 10 -39 25 -253 25
-347 0 -35 4 -63 9 -63 5 0 4 -6 -2 -13 -8 -9 -7 -20 2 -39 8 -15 12 -29 9
-32 -12 -11 34 -68 59 -73 17 -3 28 -14 32 -29 6 -24 -11 -74 -26 -74 -4 0
-17 -9 -27 -19 -15 -15 -18 -31 -16 -75 1 -31 8 -63 15 -71 7 -8 10 -24 7 -34
-3 -11 0 -22 5 -23 6 -2 11 -49 12 -108 1 -90 3 -105 17 -104 25 2 29 -88 34
-675 3 -284 7 -553 11 -599 l6 -83 20 38 c31 58 82 151 121 220 41 72 53 108
62 185 3 32 10 60 15 63 5 3 28 -2 51 -11 l41 -17 -5 -47 c-3 -26 -22 -101
-42 -166 -36 -114 -64 -225 -65 -251 0 -10 68 -13 309 -13 l309 0 20 93 c33
147 50 272 57 422 3 77 9 151 12 165 3 14 3 22 -1 19 -15 -14 -55 -209 -47
-231 4 -13 7 -36 6 -53 -1 -16 -3 -47 -4 -67 -1 -49 -15 -48 -34 1 -16 40 -33
58 -106 120 -33 28 -38 37 -30 53 5 10 14 16 19 13 4 -3 19 7 32 23 12 15 37
37 53 49 17 12 37 37 45 57 7 20 17 36 21 36 3 0 19 19 34 42 16 24 36 52 46
63 150 172 209 233 209 215 0 -7 -27 -93 -59 -189 -106 -313 -194 -632 -209
-760 -8 -69 -8 -71 13 -71 21 0 24 9 39 113 23 147 62 344 82 410 51 170 119
368 138 407 13 25 35 84 50 132 15 48 35 97 45 109 18 23 18 23 17 -28 0 -28
-4 -54 -7 -57 -13 -13 4 -56 25 -62 11 -4 25 -12 29 -18 4 -6 5 7 1 28 -5 28
-4 37 5 32 20 -12 13 81 -10 132 -12 26 -33 72 -46 102 -69 149 -82 179 -107
232 -55 119 -54 130 9 82 47 -36 96 -48 190 -48 73 -1 85 2 135 32 86 51 89
53 149 116 104 111 182 177 199 171 7 -3 10 0 7 5 -3 5 3 22 14 37 40 56 87
262 63 277 -19 12 -29 272 -12 290 5 5 6 21 4 36 -4 16 0 32 9 41 9 9 12 27
10 46 -4 24 0 34 18 47 28 19 63 21 77 4 21 -26 42 -139 42 -228 0 -82 -3 -99
-30 -154 -17 -36 -41 -69 -60 -81 -16 -11 -30 -24 -30 -30 0 -5 13 -63 30
-128 32 -133 115 -320 131 -296 7 11 15 8 39 -16 30 -30 31 -34 40 -165 11
-143 5 -239 -15 -280 -18 -34 -56 -152 -51 -157 2 -2 13 11 25 29 l22 33 -6
-65 c-4 -36 -12 -72 -20 -80 -21 -24 -61 -110 -89 -190 -14 -41 -44 -174 -66
-295 -23 -121 -50 -240 -61 -264 -10 -24 -19 -49 -19 -55 0 -7 -15 -30 -34
-52 -44 -52 -63 -90 -71 -147 l-7 -47 721 0 721 0 0 1825 0 1825 -260 0 c-196
0 -260 -3 -260 -12 0 -9 -3 -9 -12 0 -18 18 -2744 17 -2752 0 -5 -10 -7 -10
-12 0 -4 9 -50 12 -180 12 l-174 0 0 -122z m3396 85 c-7 -7 -26 7 -26 19 0 6
6 6 15 -2 9 -7 13 -15 11 -17z m-1896 -243 c18 -12 2 -12 -25 0 -13 6 -15 9
-5 9 8 0 22 -4 30 -9z m-220 -69 c0 -5 -9 -7 -20 -4 -11 3 -20 7 -20 9 0 2 9
4 20 4 11 0 20 -4 20 -9z m95 -11 c-3 -5 -12 -10 -18 -10 -7 0 -6 4 3 10 19
12 23 12 15 0z m48 -20 c7 0 7 -4 -2 -9 -16 -10 -41 -4 -41 11 0 6 7 7 16 4 9
-3 21 -6 27 -6z m452 -34 c13 -9 35 -16 48 -16 16 0 28 -9 36 -27 7 -15 21
-33 32 -41 10 -7 19 -18 19 -23 0 -18 80 -177 95 -189 19 -16 19 -36 1 -43
-12 -5 -11 -13 5 -47 11 -22 29 -51 40 -64 34 -39 75 -138 88 -211 7 -39 22
-95 33 -125 21 -59 21 -59 38 -195 9 -75 8 -104 -4 -164 -24 -116 -93 -212
-176 -247 -19 -8 -69 -50 -110 -93 -92 -97 -148 -137 -217 -157 -70 -20 -146
-6 -226 43 -31 19 -71 36 -87 38 -63 8 -141 70 -212 166 -27 38 -53 69 -57 69
-11 0 -86 167 -105 235 -10 33 -19 68 -22 78 -11 38 16 14 40 -35 l26 -53 -5
40 c-3 22 -8 100 -11 173 -6 126 -5 135 15 162 26 36 26 36 -4 64 -15 14 -25
34 -25 51 0 15 -7 33 -15 39 -8 6 -16 24 -19 41 -3 16 -13 53 -22 82 -16 52
-13 90 6 78 6 -3 14 4 18 16 6 15 11 18 16 11 4 -7 11 -12 17 -12 14 0 11 28
-5 37 -8 4 -21 27 -29 51 -14 39 -13 44 5 68 11 14 26 23 34 20 7 -3 16 -1 19
4 11 17 45 11 46 -7 0 -16 1 -16 8 1 5 14 10 16 15 8 13 -21 25 -13 44 31 19
44 64 75 116 82 11 1 48 14 81 29 33 15 70 25 83 23 12 -2 26 1 30 8 11 20 40
24 160 20 82 -2 119 -7 137 -19z m-826 -280 c-9 -8 -10 -7 -5 7 3 10 7 31 8
45 1 22 2 21 5 -7 3 -19 -1 -38 -8 -45z m1121 -57 c0 -6 -4 -7 -10 -4 -5 3
-10 11 -10 16 0 6 5 7 10 4 6 -3 10 -11 10 -16z m137 -81 c-3 -8 -6 -5 -6 6
-1 11 2 17 5 13 3 -3 4 -12 1 -19z m-1290 -105 c-3 -10 -5 -4 -5 12 0 17 2 24
5 18 2 -7 2 -21 0 -30z m23 -164 c0 -5 -4 -9 -10 -9 -5 0 -10 7 -10 16 0 8 5
12 10 9 6 -3 10 -10 10 -16z m2027 -95 c18 -24 17 -29 -11 -61 -23 -27 -28
-28 -115 -28 -80 0 -93 3 -113 22 -53 53 29 97 167 88 42 -2 63 -9 72 -21z
m-2113 -163 c-7 -7 -34 28 -34 43 1 6 10 0 21 -13 11 -13 17 -27 13 -30z m-24
-137 c0 -8 -5 -12 -10 -9 -6 4 -8 11 -5 16 9 14 15 11 15 -7z m9 -55 c-9 -5
-15 -4 -18 2 -2 6 3 15 10 20 9 5 15 4 18 -2 2 -6 -3 -15 -10 -20z m18 -29
c-3 -11 -2 -22 2 -25 5 -2 9 -37 9 -76 1 -40 6 -75 12 -79 5 -3 9 -32 8 -64
-1 -40 3 -61 13 -68 11 -7 11 -11 2 -15 -15 -6 -17 -43 -3 -43 5 0 9 -10 9
-22 0 -13 3 -75 6 -138 4 -63 8 -176 10 -250 3 -181 1 -173 25 -165 28 9 25
-2 -9 -36 -19 -18 -35 -27 -45 -23 -10 4 -33 -5 -56 -20 -22 -14 -41 -26 -43
-26 -2 0 -3 38 -3 85 1 48 -3 86 -9 88 -6 2 -4 11 4 21 12 14 12 19 2 26 -9 5
-10 10 -2 14 13 9 15 53 2 60 -5 4 -5 23 1 48 6 27 5 51 -1 67 -6 14 -10 37
-10 51 0 14 -1 41 -2 60 -1 19 4 63 10 96 6 34 8 69 4 79 -5 14 -3 16 7 10 10
-6 12 2 6 44 -5 39 -4 51 5 46 15 -10 1 37 -15 48 -8 5 -7 11 4 20 16 12 24
80 9 71 -5 -3 -9 2 -9 10 0 9 5 16 10 16 13 0 13 43 0 56 -11 11 -3 24 25 41
27 16 28 16 22 -7z m216 -394 c15 -42 23 -111 41 -357 l4 -56 -55 -56 c-30
-31 -58 -55 -62 -53 -11 7 6 509 19 544 16 43 31 37 53 -22z m546 -591 c0 -5
-4 -3 -9 5 -5 8 -9 22 -9 30 0 16 17 -16 18 -35z m-359 -141 c0 -14 -4 -23 -9
-20 -5 3 -7 15 -4 26 7 28 13 25 13 -6z m1270 -106 c0 -5 13 -36 30 -70 30
-60 30 -60 11 -86 -25 -35 -81 -86 -136 -123 -25 -17 -49 -38 -55 -47 -15 -27
-12 2 10 76 32 109 64 198 77 213 6 8 17 27 23 43 9 23 13 26 25 16 8 -7 15
-17 15 -22z m373 -630 c3 -9 8 -10 18 -3 8 6 26 12 42 14 31 3 38 -22 10 -38
-16 -9 -16 -10 -1 -11 9 0 19 -6 21 -12 3 -7 6 4 6 25 1 41 6 43 56 23 48 -20
75 -68 75 -133 l0 -53 -65 0 c-64 0 -70 3 -66 38 2 16 -7 15 -24 -2 -10 -10
-11 -16 -3 -24 8 -8 -4 -11 -43 -10 -30 1 -58 7 -62 12 -6 8 -10 7 -14 -1 -7
-18 -23 -16 -23 2 0 8 -4 15 -10 15 -5 0 -10 -8 -10 -17 0 -15 -2 -15 -9 -4
-5 8 -7 20 -4 27 6 17 -23 48 -32 34 -5 -8 -11 -8 -20 0 -10 8 -14 7 -18 -2
-3 -7 -6 5 -6 27 0 36 1 38 13 22 9 -12 15 -14 18 -6 3 10 22 14 92 18 5 1 6
17 3 36 -5 33 -4 35 23 35 15 0 30 -6 33 -12z m-1773 -138 c0 -5 -5 -10 -11
-10 -5 0 -7 5 -4 10 3 6 8 10 11 10 2 0 4 -4 4 -10z"/>
<path d="M1200 2993 c0 -13 5 -23 10 -23 13 0 13 11 0 30 -8 12 -10 11 -10 -7z"/>
<path d="M2016 2823 c-11 -12 -6 -23 10 -23 10 0 14 -6 10 -15 -3 -10 1 -15
13 -15 14 0 18 5 14 18 -5 20 -38 44 -47 35z"/>
<path d="M1758 2783 c-9 -10 -13 -24 -11 -30 7 -20 40 -15 88 11 24 14 46 22
49 19 3 -4 6 -1 6 5 0 20 -114 15 -132 -5z"/>
<path d="M1833 2690 c-26 -11 -26 -10 -13 -44 9 -24 10 -25 52 -13 24 7 44 18
44 25 3 24 4 26 16 14 13 -13 58 -16 58 -4 0 10 -81 32 -113 31 -12 0 -32 -4
-44 -9z"/>
<path d="M1210 2615 c-14 -8 -21 -14 -16 -15 5 0 2 -8 -5 -17 -13 -16 -12 -17
2 -5 9 7 32 14 50 15 37 2 55 17 36 29 -18 11 -39 9 -67 -7z"/>
<path d="M1300 2610 c0 -5 9 -10 21 -10 11 0 17 5 14 10 -3 6 -13 10 -21 10
-8 0 -14 -4 -14 -10z"/>
<path d="M1281 2519 c-42 -26 -70 -58 -71 -83 0 -15 3 -16 15 -6 8 7 15 18 15
24 0 7 7 21 15 32 14 19 15 19 34 -5 18 -24 19 -24 55 -7 20 9 36 21 36 26 0
44 -44 53 -99 19z"/>
<path d="M1942 2169 c2 -6 8 -10 13 -10 5 0 11 4 13 10 2 6 -4 11 -13 11 -9 0
-15 -5 -13 -11z"/>
<path d="M1860 2070 c0 -5 5 -10 11 -10 5 0 7 5 4 10 -3 6 -8 10 -11 10 -2 0
-4 -4 -4 -10z"/>
<path d="M1508 1983 c7 -3 16 -2 19 1 4 3 -2 6 -13 5 -11 0 -14 -3 -6 -6z"/>
<path d="M2976 143 c6 -51 5 -56 -8 -46 -8 7 -18 10 -21 6 -12 -11 -8 -23 8
-23 8 0 15 -4 15 -10 0 -16 17 -11 24 7 9 23 -4 123 -16 123 -6 0 -7 -23 -2
-57z"/>
<path d="M3000 165 c0 -8 5 -15 10 -15 6 0 10 7 10 15 0 8 -4 15 -10 15 -5 0
-10 -7 -10 -15z"/>
<path d="M3055 140 c3 -5 10 -10 16 -10 5 0 9 5 9 10 0 6 -7 10 -16 10 -8 0
-12 -4 -9 -10z"/>
<path d="M2887 126 c-6 -15 1 -26 15 -26 11 0 10 27 -1 34 -5 3 -11 0 -14 -8z"/>
<path d="M3020 110 c0 -16 5 -30 10 -30 6 0 10 14 10 30 0 17 -4 30 -10 30 -5
0 -10 -13 -10 -30z"/>
<path d="M3056 113 c-11 -11 -6 -23 9 -23 8 0 15 4 15 9 0 13 -16 22 -24 14z"/>
<path d="M3000 55 c0 -8 9 -15 20 -15 11 0 20 7 20 15 0 8 -9 15 -20 15 -11 0
-20 -7 -20 -15z"/>
<path d="M60 2575 c0 -8 5 -15 10 -15 6 0 10 7 10 15 0 8 -4 15 -10 15 -5 0
-10 -7 -10 -15z"/>
<path d="M270 1180 c0 -5 5 -10 11 -10 5 0 7 5 4 10 -3 6 -8 10 -11 10 -2 0
-4 -4 -4 -10z"/>
<path d="M2501 1054 c0 -11 3 -14 6 -6 3 7 2 16 -1 19 -3 4 -6 -2 -5 -13z"/>
<path d="M1691 984 c0 -11 3 -14 6 -6 3 7 2 16 -1 19 -3 4 -6 -2 -5 -13z"/>
<path d="M1741 984 c0 -11 3 -14 6 -6 3 7 2 16 -1 19 -3 4 -6 -2 -5 -13z"/>
</g>
</svg>
